Coordinates
version=1
nRows=6
nColumns=36
inDegrees=yes

Units are S.I. units (second, meters, Newtons, ...)
If the header above contains a line with 'inDegrees', this indicates whether rotational values are in degrees (yes) or radians (no).

endheader
time	pelvis_tilt	pelvis_list	pelvis_rotation	pelvis_tx	pelvis_ty	pelvis_tz	hip_flexion_r	hip_adduction_r	hip_rotation_r	knee_angle_r	knee_angle_r_beta	ankle_angle_r	subtalar_angle_r	mtp_angle_r	hip_flexion_l	hip_adduction_l	hip_rotation_l	knee_angle_l	knee_angle_l_beta	ankle_angle_l	subtalar_angle_l	mtp_angle_l	lumbar_extension	lumbar_bending	lumbar_rotation	arm_flex_r	arm_add_r	arm_rot_r	elbow_flex_r	pro_sup_r	arm_flex_l	arm_add_l	arm_rot_l	elbow_flex_l	pro_sup_l
     14.98333330	    -39.85213177	      1.81355755	     -0.53559448	     -0.08941298	      0.65915170	     -0.05633730	    109.81814428	     -6.31278873	      2.48778609	     94.81404454	      1.65481725	     36.57357928	      4.78254099	     -7.49999987	    109.32255496	    -15.42330282	     -1.93191999	     95.36849541	      1.66449425	     31.00560193	      9.32064610	     -7.49999987	    -45.23617850	     -2.93914205	     10.19913564	     27.54236395	    -30.07040597	    -13.30114918	     80.76388464	     85.75071328	     42.57412893	    -21.34524445	      5.30074101	     80.66492275	     88.70855283
     15.00000000	    -40.14616352	      1.84239010	     -0.55688503	     -0.06976142	      0.66105007	     -0.04064346	    109.98302597	     -6.19895499	      2.68017915	     95.10600398	      1.65991291	     36.75869595	      4.65610605	     -7.49999987	    109.50546727	    -15.33016062	     -1.87618750	     95.53085023	      1.66732787	     31.18289780	      8.86159005	     -7.49999987	    -45.91483687	     -2.93146013	     10.01075222	     27.04093332	    -29.90607228	    -13.28218059	     80.60538665	     85.65763258	     42.28327153	    -21.36244773	      5.36755582	     80.50430005	     88.72860330
     15.01666670	    -41.32442315	      1.67479562	     -0.49771253	     -0.08809453	      0.65828708	     -0.04274305	    111.39114743	     -6.28169454	      2.63723640	     95.04652160	      1.65887474	     36.26520297	      4.93018565	     -7.49999987	    110.96313294	    -15.24787808	     -1.50966554	     95.28375227	      1.66301520	     30.07843526	      7.84134733	     -7.49999987	    -45.42898811	     -2.74046037	     10.31984499	     28.04306283	    -30.96100901	    -12.48098722	     80.23424986	     85.13245171	     44.51056533	    -21.61679808	      7.29353882	     80.11327745	     90.13563415
     15.03333330	    -41.98431710	      1.43500660	     -0.49250026	     -0.08922954	      0.64906543	     -0.04130635	    112.59851293	     -6.17084835	      2.63585931	     95.59259367	      1.66840550	     36.30923213	      5.42288730	     -7.49999987	    112.30222253	    -15.08933117	     -1.01051882	     95.65568185	      1.66950660	     29.37721092	      6.97048385	     -7.49999987	    -44.83360360	     -2.55445563	     10.27453058	     28.12945402	    -31.20605980	    -11.59834459	     80.79138366	     83.41145929	     44.77153010	    -22.09165297	      7.95598035	     80.64150624	     88.85462236
     15.05000000	    -42.14597043	      1.77977765	     -0.56092282	     -0.07117877	      0.65281749	     -0.04800832	    112.82175625	     -5.85284758	      3.18173960	     95.81250555	      1.67224369	     36.38688410	      5.85370131	     -7.49999987	    112.18867829	    -14.99533593	     -1.21346338	     95.77047365	      1.67151009	     29.49278811	      6.44893727	     -7.49999987	    -44.91986174	     -3.16953191	     10.65162826	     26.64314667	    -31.58247656	    -12.57799525	     81.05520701	     82.62284551	     45.53823489	    -21.35331500	      9.32400911	     78.81541121	     92.72907851
     15.06666670	    -42.77529414	      1.21890717	     -0.52940369	     -0.09918380	      0.64615351	     -0.03524168	    113.78980753	     -5.77533985	      2.76301202	     96.01543963	      1.67578555	     36.03545567	      6.19223004	     -7.49999987	    113.57544584	    -14.98737117	     -0.41568882	     95.77483288	      1.67158617	     28.60580360	      6.20219355	     -7.49999987	    -44.04505545	     -2.98223893	     10.91179344	     27.92565994	    -33.06007828	    -10.53470187	     81.16610273	     82.61909047	     47.68354214	    -22.06843588	     11.28403357	     78.82529216	     93.25165774
